<svg width="60" height="60" viewBox="0 0 60 60" fill="none" xmlns="http://www.w3.org/2000/svg">
<path d="M34.7396 23.6016C34.7396 21.0117 33.1146 19.582 30.2604 19.582H25.0104V27.9258H29.4375C32.8542 27.9141 34.7396 26.3672 34.7396 23.6016ZM53.8542 22.1016C52.8646 18.4805 52.7188 14.0391 52.8334 10.6055C52.9479 7.03125 50.4688 3.75 47.1354 3.75H12.8854C9.54169 3.75 7.07294 7.04297 7.18752 10.6055C7.29169 14.0391 7.15627 18.4805 6.16669 22.1016C5.16669 25.7344 3.4896 28.0312 0.729187 28.3242V31.6641C3.47919 31.957 5.16669 34.2539 6.16669 37.8867C7.15627 41.5078 7.3021 45.9492 7.18752 49.3828C7.07294 52.957 9.5521 56.2383 12.8854 56.2383H47.125C50.4688 56.2383 52.9375 52.9453 52.8229 49.3828C52.7188 45.9492 52.8542 41.5078 53.8438 37.8867C54.8438 34.2539 56.5209 31.957 59.2709 31.6641V28.3242C56.5313 28.0312 54.8438 25.7344 53.8542 22.1016ZM31.2709 43.957H21.0729V16.0312H31.2188C35.7292 16.0312 38.6875 18.7734 38.6875 22.9922C38.6875 25.957 36.6979 28.6055 34.1563 29.0625V29.2148C37.6146 29.6367 39.9375 32.332 39.9375 36.0469C39.9375 40.9805 36.6771 43.957 31.2709 43.957ZM30.2292 31.2187H25.0104V40.4062H30.4584C34.0209 40.4062 35.9063 38.8008 35.9063 35.7773C35.9063 32.7656 33.9688 31.2187 30.2292 31.2187Z" fill="#8B06CA"/>
</svg>
