<svg width="60" height="60" viewBox="0 0 60 60" fill="none" xmlns="http://www.w3.org/2000/svg">
<path d="M32.5 21.25H22.5C17.6675 21.25 13.75 17.3325 13.75 12.5C13.75 7.6675 17.6675 3.75 22.5 3.75H32.5V21.25Z" fill="#E64A19"/>
<path d="M31.25 38.75H22.5C17.6675 38.75 13.75 34.8325 13.75 30C13.75 25.1675 17.6675 21.25 22.5 21.25H31.25V38.75Z" fill="#7C4DFF"/>
<path d="M22.5 56.25C17.6675 56.25 13.75 52.3325 13.75 47.5C13.75 42.6675 17.6675 38.75 22.5 38.75H31.25V47.5C31.25 52.3325 27.3325 56.25 22.5 56.25Z" fill="#66BB6A"/>
<path d="M40 21.25H31.25V3.75H40C44.8325 3.75 48.75 7.6675 48.75 12.5C48.75 17.3325 44.8325 21.25 40 21.25Z" fill="#FF7043"/>
<path d="M40 38.75C44.8325 38.75 48.75 34.8325 48.75 30C48.75 25.1675 44.8325 21.25 40 21.25C35.1675 21.25 31.25 25.1675 31.25 30C31.25 34.8325 35.1675 38.75 40 38.75Z" fill="#29B6F6"/>
</svg>
