<svg width="60" height="60" viewBox="0 0 60 60" fill="none" xmlns="http://www.w3.org/2000/svg">
<path d="M7.5 52.5V7.5H52.5V52.5H7.5Z" fill="#FFD600"/>
<path d="M36.9225 41.1837C37.7875 42.5887 38.7275 43.935 40.7188 43.935C42.3913 43.935 43.2688 43.1038 43.2688 41.9538C43.2688 40.5775 42.3613 40.0888 40.5213 39.2875L39.5125 38.8575C36.6013 37.6225 34.665 36.075 34.665 32.8063C34.665 29.7938 36.9713 27.5012 40.575 27.5012C43.1413 27.5012 44.985 28.39 46.315 30.7175L43.1725 32.7263C42.4813 31.4913 41.7338 31.005 40.575 31.005C39.3925 31.005 38.6438 31.7513 38.6438 32.7263C38.6438 33.9313 39.3938 34.4188 41.125 35.165L42.1338 35.595C45.565 37.0563 47.5 38.5487 47.5 41.9037C47.5 45.5187 44.645 47.5 40.8125 47.5C37.0638 47.5 34.935 45.6188 33.75 43.29L36.9225 41.1837ZM22.44 41.2863C23.0725 42.4188 24.0338 43.29 25.4163 43.29C26.7388 43.29 27.5 42.7675 27.5 40.7363V27.5H31.6663V41.3763C31.6663 45.585 29.225 47.5 25.66 47.5C22.4388 47.5 20.1138 45.3175 19.1663 43.29L22.44 41.2863Z" fill="#000001"/>
</svg>
