<svg width="60" height="60" viewBox="0 0 60 60" fill="none" xmlns="http://www.w3.org/2000/svg">
<path d="M35.8074 3.76064C35.6816 3.77928 35.5557 3.81656 35.4345 3.87249C34.4089 4.38052 33.2435 5.8906 33.0198 6.18889C33.0058 6.20753 32.9918 6.22617 32.9825 6.24482C31.831 7.96929 31.2157 9.9874 31.1924 12.0894C31.1784 13.6647 31.4861 15.2261 32.1107 16.7315C33.5652 20.2224 36.5859 23.1121 40.1801 24.4637C40.3013 24.5056 40.4178 24.5476 40.6276 24.6222C40.6463 24.6315 40.8234 24.6874 40.8514 24.6921L40.9819 24.7387C41.1684 24.7993 41.3595 24.8598 41.546 24.8971C42.4923 25.0882 43.4153 25.1954 44.2824 25.2234C44.4315 25.2234 44.5807 25.228 44.7299 25.228C51.2702 25.228 53.8062 20.6139 54.6499 19.0759C54.7338 18.9267 54.7944 18.8055 54.8504 18.731C54.8504 18.7263 54.8504 18.7263 54.855 18.7216C55.2233 18.1763 55.0835 17.4353 54.538 17.0624C53.9973 16.6942 53.2561 16.834 52.8831 17.3793H52.8785C51.135 19.9474 48.1515 20.7258 44.0166 19.7004C43.709 19.6258 43.3733 19.5093 43.075 19.3975C42.6834 19.2576 42.2918 19.0945 41.9282 18.9174C41.2057 18.5585 40.525 18.1297 39.9097 17.6543C36.2736 14.8346 34.8518 8.96669 36.9775 5.57833C37.2619 5.12624 37.2106 4.53898 36.8516 4.14282C36.5813 3.84453 36.1897 3.70937 35.8074 3.76064ZM25.2348 6.13762C24.9644 6.13296 24.6893 6.22151 24.4656 6.40794C22.6615 7.87608 20.8155 10.281 20.7362 10.3789C20.7269 10.3975 20.7176 10.4115 20.7036 10.4302C17.4404 15.1795 17.1934 21.9376 20.0789 27.647C20.5311 28.5512 21.0439 29.4134 21.5893 30.2057L21.7525 30.4388C22.214 31.1146 22.7314 31.8789 23.3934 32.4755C23.6218 32.7365 23.8689 32.9882 24.1113 33.2306L24.2278 33.3517L24.3257 33.4496C24.5728 33.6873 24.8245 33.9297 25.0856 34.1627H25.0902C25.1089 34.1907 25.1369 34.2093 25.1602 34.2326C25.4539 34.4936 25.7522 34.7406 26.1484 35.0529L26.2557 35.1321C26.5633 35.3792 26.8757 35.6122 27.1973 35.8406C27.23 35.8639 27.2626 35.8872 27.2952 35.9105C27.4071 35.9851 27.519 36.055 27.6309 36.1342L27.7427 36.2088L27.8733 36.2927C28.111 36.4511 28.3441 36.5956 28.6751 36.7867C28.8895 36.9172 29.1179 37.0477 29.2671 37.1223C29.3324 37.1596 29.4023 37.1969 29.5655 37.2854L29.9291 37.4765C29.9477 37.4858 30.0316 37.5231 30.0503 37.5324C30.288 37.6536 30.5351 37.7701 30.7821 37.882L31.1597 38.0498C31.4068 38.157 31.6585 38.2595 31.9662 38.376L32.1061 38.4273C32.1154 38.4366 32.2319 38.4786 32.2413 38.4832C32.465 38.5625 32.6934 38.6417 32.9219 38.7163L33.444 38.8887C33.705 38.9773 34.008 39.0798 34.339 39.1357C35.9659 39.4061 37.5462 39.5459 39.0426 39.5459C39.2198 39.5459 39.3969 39.5412 39.5694 39.5412C52.7433 39.2522 56.1696 28.0618 56.2023 27.9499C56.3654 27.386 56.0997 26.7847 55.5683 26.5331C55.0368 26.2814 54.4029 26.4585 54.0719 26.9432C50.7341 31.8183 44.4222 33.8784 37.9938 32.1819C37.6954 32.1073 37.4064 32.0234 37.0474 31.9069C36.9868 31.8883 36.9356 31.8696 36.8377 31.8323C36.6279 31.7671 36.4228 31.6972 36.1897 31.6086L35.8587 31.4828C35.6676 31.4082 35.4765 31.3336 35.2434 31.2311L35.0895 31.1612C34.8052 31.04 34.5301 30.9048 34.2831 30.7837L33.6025 30.4294C33.4486 30.3549 33.3134 30.271 33.1037 30.1451L32.9871 30.0799L32.8706 30.01C32.6981 29.9074 32.5256 29.8002 32.3671 29.6884L32.2552 29.6185C32.2459 29.6138 32.1527 29.5486 32.1434 29.5392C32.0035 29.4507 31.8683 29.3621 31.7378 29.2782C31.4488 29.0732 31.1644 28.8588 30.8334 28.5978L30.7029 28.4906C27.6262 26.0344 25.3513 22.7532 24.2838 19.2343C23.2908 16.0044 24.0274 11.7771 26.2557 7.92735C26.5447 7.42864 26.4375 6.79478 25.9946 6.42192C25.7755 6.23549 25.5051 6.13762 25.2348 6.13762ZM12.1028 9.71707C11.8185 9.71707 11.5294 9.81961 11.301 10.0247C9.02145 12.0708 7.31528 14.7227 7.12881 15.0257C2.2527 22.124 3.19436 33.156 6.54144 39.9001C6.6067 40.0399 6.67663 40.1751 6.74655 40.3102L6.79317 40.3848C6.85377 40.52 6.9237 40.6598 6.94701 40.6878C6.9843 40.7763 7.04024 40.8742 7.06355 40.9021C7.11949 41.0187 7.17543 41.1212 7.27798 41.2983L7.66024 41.9555C7.71618 42.044 7.77212 42.1372 7.79077 42.1699C7.86535 42.2911 7.9446 42.4169 8.02385 42.5427L8.21032 42.841C8.26626 42.9296 8.3222 43.0088 8.35949 43.0554C8.54596 43.3444 8.73243 43.6334 8.93754 43.9083C8.94686 43.9223 8.95619 43.9316 8.96551 43.941L9.0401 44.0435C9.20792 44.2859 9.3804 44.5189 9.53423 44.71L10.2148 45.5722C10.2242 45.5815 10.2987 45.6701 10.3034 45.6794L10.4013 45.7913C10.6064 46.043 10.8255 46.2946 11.0446 46.537C11.0772 46.5743 11.1099 46.6069 11.1425 46.6442C11.3523 46.8726 11.5667 47.1009 11.7905 47.3386L12.0049 47.5437C12.1821 47.7302 12.3592 47.9119 12.5457 48.0844C12.5457 48.089 12.6342 48.1729 12.6342 48.1729L12.8207 48.3454C13.0445 48.5598 13.2776 48.7742 13.4547 48.9233C13.464 48.9373 13.6318 49.0818 13.6458 49.0911C13.8649 49.2868 14.084 49.4733 14.3078 49.655L15.4499 50.5592C15.641 50.699 15.8368 50.8389 16.0606 51.002C16.1352 51.0579 16.2144 51.1139 16.2937 51.1651C16.3263 51.1931 16.3636 51.2211 16.3869 51.235L17.2446 51.8083C17.557 52.0134 17.8693 52.2045 18.2516 52.4328L18.4567 52.5494C18.6944 52.6892 18.9368 52.829 19.1653 52.9502C19.3004 53.0248 19.4356 53.09 19.5522 53.1506C19.7153 53.2392 19.8925 53.337 20.1629 53.4675C20.1862 53.4815 20.3773 53.5747 20.4006 53.5841C20.671 53.7192 20.946 53.8451 21.291 53.9989C21.291 54.0035 21.4029 54.0548 21.4029 54.0548C21.7199 54.1899 22.0275 54.3204 22.4331 54.4836C22.4984 54.5115 22.5636 54.5348 22.5776 54.5395C22.8666 54.6514 23.1696 54.7632 23.4167 54.8518C23.44 54.8611 23.5659 54.9124 23.5892 54.9217C23.9202 55.0335 24.2465 55.1407 24.666 55.2712C24.736 55.2945 24.8105 55.3179 24.8199 55.3179L25.0576 55.3924C25.3466 55.481 25.6357 55.5742 25.948 55.6348C28.1669 56.0403 30.3346 56.25 32.3858 56.25H32.3904C49.4848 56.25 54.9296 42.4961 54.9856 42.3563C55.1953 41.8017 54.9669 41.1771 54.4448 40.8882C53.932 40.6039 53.2794 40.739 52.9158 41.2098C48.5291 46.9844 40.2547 49.1284 30.7821 46.9518C30.5537 46.8959 30.3206 46.8306 30.0922 46.7607L29.6447 46.6256C29.3417 46.5323 29.0387 46.4298 28.745 46.3273C28.7403 46.3273 28.6051 46.276 28.6051 46.276C28.3441 46.1874 28.083 46.0849 27.8546 45.9964L27.5936 45.8938C27.3045 45.7773 27.0155 45.6561 26.7358 45.5303L26.5727 45.4604C26.3209 45.3438 26.0785 45.232 25.8361 45.1108C25.8175 45.1015 25.6263 45.0083 25.6077 45.0036C25.4399 44.9197 25.272 44.8312 25.0576 44.7146L24.0833 44.1926C23.9854 44.1274 23.8829 44.0668 23.785 44.0155C23.4913 43.8338 23.1883 43.652 22.8899 43.4609C22.82 43.419 22.7594 43.3723 22.6429 43.2931C22.4377 43.1626 22.2373 43.0275 21.9436 42.8224L21.8271 42.7385C21.6266 42.5987 21.4308 42.4495 21.2677 42.3283C21.1651 42.2538 21.0626 42.1699 20.8947 42.044C20.7456 41.9275 20.5964 41.8157 20.4565 41.7038L20.1955 41.4894C19.9764 41.3123 19.7713 41.1259 19.5568 40.9441C19.5289 40.9161 19.5056 40.8975 19.4729 40.8742C19.2352 40.6551 18.9928 40.4361 18.7037 40.1611L17.86 39.3222C17.6549 39.1124 17.4498 38.898 17.2167 38.6417C17.0022 38.404 16.7971 38.1663 16.5221 37.84L16.0186 37.2248C15.958 37.1363 15.8928 37.0477 15.8135 36.9545C15.641 36.7215 15.4685 36.4931 15.2961 36.2507C10.653 29.8562 9.441 16.5078 13.0585 11.6187C13.4221 11.1293 13.3568 10.4395 12.9 10.0247C12.6762 9.81961 12.3872 9.71707 12.1028 9.71707Z" fill="black"/>
</svg>
