<svg width="30" height="30" viewBox="0 0 30 30" fill="none" xmlns="http://www.w3.org/2000/svg">
<g clip-path="url(#clip0_34_90)">
<path d="M20.5 30L9.54167 26.125L2.08333 29.0833C1.61111 29.3333 1.14583 29.3194 0.6875 29.0417C0.229167 28.7639 0 28.3472 0 27.7917V4.54167C0 4.18056 0.104167 3.86111 0.3125 3.58333C0.520833 3.30556 0.791667 3.09722 1.125 2.95833L9.54167 0L20.5 3.83333L27.9167 0.875C28.3889 0.652778 28.8542 0.673611 29.3125 0.9375C29.7708 1.20139 30 1.61111 30 2.16667V25.7083C30 26.0139 29.8958 26.2778 29.6875 26.5C29.4792 26.7222 29.2222 26.8889 28.9167 27L20.5 30ZM19.0833 26.875V5.83333L10.9167 3.08333V24.125L19.0833 26.875ZM21.5833 26.875L27.5 24.9167V3.58333L21.5833 5.83333V26.875ZM2.5 26.375L8.41667 24.125V3.08333L2.5 5.04167V26.375Z" fill="url(#paint0_linear_34_90)"/>
</g>
<defs>
<linearGradient id="paint0_linear_34_90" x1="15" y1="0" x2="15" y2="30" gradientUnits="userSpaceOnUse">
<stop stop-color="#00023A"/>
<stop offset="1" stop-color="#00001F"/>
</linearGradient>
<clipPath id="clip0_34_90">
<rect width="30" height="30" fill="white"/>
</clipPath>
</defs>
</svg>
