<svg width="60" height="60" viewBox="0 0 60 60" fill="none" xmlns="http://www.w3.org/2000/svg">
<g clip-path="url(#clip0_15_35)">
<path d="M0.0025 43.8012H2.4025V34.945L5.73625 42.5162C6.1475 43.46 6.71 43.7937 7.81375 43.7937C8.9175 43.7937 9.4575 43.46 9.86875 42.5162L13.2025 35.1387V43.8012H15.6025V34.7287C15.6025 33.8575 15.2562 33.435 14.5412 33.2175C12.8325 32.68 11.685 33.1437 11.1662 34.3075L7.7475 42.0075L4.43625 34.3075C3.93875 33.145 2.77125 32.68 1.06125 33.2175C0.34625 33.435 0 33.8562 0 34.7275V43.8L0.0025 43.8012Z" fill="#00796B"/>
<path d="M16.8013 36.6013H19.2013V41.67C19.1825 41.92 19.2813 42.5838 20.4388 42.6013C21.0288 42.6113 23.965 42.6013 24.0013 42.6013V36.6013H26.4013C26.4113 36.6013 26.4013 44.0613 26.4013 44.0925C26.4138 45.9325 24.1163 46.17 23.06 46.2013H16.8025V45.0013C16.815 45.0013 22.7863 45.0025 22.8038 45.0013C24.1638 44.8575 24.0025 44.1088 24.0025 43.8813V43.8013H20.2375C18.15 43.7825 16.8188 42.8625 16.8038 41.8138C16.8013 41.7163 16.8488 36.6463 16.8013 36.6013Z" fill="#00796B"/>
<path d="M27.6013 43.8013H33.61C34.3975 43.8013 35.1625 43.6363 35.77 43.3513C36.7825 42.8863 37.2 42.2575 37.2 41.4313V39.7213C37.2 37.8763 34.9125 37.8013 33.6 37.8013H31.2C30.2563 37.8013 30.1125 37.2313 30 36.6013V35.4013C30.1125 34.9213 30.3225 34.2763 31.1538 34.2013C32.12 34.2013 37.1988 34.2013 37.1988 34.2013V33.0013H31.4913C30.5475 33.0013 27.5988 33.1138 27.5988 35.4013V36.885C27.5988 37.935 28.5213 38.79 30.5238 39C30.7488 39.015 30.9738 39.03 31.1975 39.03C31.1975 39.03 33.53 38.985 33.5975 39C34.9475 39 34.7975 40.05 34.7975 40.2V41.4C34.7975 41.565 34.76 42.6 33.5838 42.6C33.4938 42.6 27.5975 42.6 27.5975 42.6V43.8013H27.6013Z" fill="#F57F17"/>
<path d="M50.4 41.35C50.4 42.7988 51.2188 43.6113 53.39 43.7738C53.5925 43.7875 53.7963 43.8 54 43.8H60V42.6H54.4563C53.2175 42.6 52.8 42.08 52.8 41.3363V33H50.4V41.35Z" fill="#F57F17"/>
<path d="M38.38 41.4013V35.4013C38.38 34.1263 39.005 33.2463 40.775 33.0013H41.615H45.9238H46.58C48.35 33.2463 49.18 34.125 49.18 35.4013V41.3788C49.18 42.4125 48.9113 42.9675 48.035 43.3275L49.895 45H47.195L45.8575 43.8H44.2863L41.6163 43.815C41.23 43.815 40.8225 43.7613 40.375 43.6388C39.0325 43.2725 38.38 42.5675 38.38 41.4013ZM40.78 41.4013C40.9025 41.985 41.3713 42.6013 42.205 42.6013H44.535L43.2 41.4013H45.9188L46.5675 42.0038C46.5675 42.0038 46.8 41.8138 46.8 41.4013C46.8 40.9888 46.78 35.4013 46.78 35.4013C46.6575 34.8588 46.1075 34.2013 45.295 34.2013H42.2063C41.27 34.2013 40.7813 34.8863 40.7813 35.5238L40.78 41.4013Z" fill="#F57F17"/>
<path d="M57.7488 31.7362C56.4601 31.7012 55.4763 31.8212 54.6351 32.175C54.3963 32.2762 54.0151 32.2787 53.9751 32.5787C54.1063 32.7162 54.1263 32.9225 54.2313 33.0912C54.4313 33.4162 54.7713 33.8525 55.0738 34.08C55.4051 34.33 55.7463 34.5975 56.1001 34.8137C56.7301 35.1975 57.4338 35.4175 58.0413 35.8025C58.3988 36.0287 58.7538 36.3162 59.1038 36.5712C59.2763 36.6987 59.3913 36.895 59.6163 36.975C59.6163 36.9625 59.6163 36.9512 59.6163 36.9387C59.4988 36.7887 59.4676 36.5825 59.3601 36.425C59.2013 36.2662 59.0426 36.1075 58.8838 35.9487C58.4188 35.3312 57.8263 34.7875 57.1988 34.3375C56.6976 33.9775 55.5763 33.4912 55.3663 32.9087C55.3538 32.8962 55.3426 32.885 55.3288 32.8712C55.6838 32.8312 56.1001 32.7025 56.4276 32.615C56.9788 32.4675 57.4701 32.5062 58.0388 32.3587C58.2951 32.285 58.5513 32.2125 58.8076 32.1387C58.8076 32.09 58.8076 32.0412 58.8076 31.9925C58.5201 31.6975 58.3138 31.3075 58.0013 31.04C57.1801 30.3412 56.2851 29.6437 55.3638 29.0612C54.8526 28.7387 54.2201 28.5287 53.6788 28.255C53.4963 28.1625 53.1763 28.115 53.0563 27.9625C52.7713 27.6 52.6176 27.1387 52.3976 26.7175C51.9376 25.8325 51.4851 24.865 51.0788 23.9337C50.8001 23.2987 50.6188 22.6712 50.2726 22.1012C48.6088 19.3662 46.8176 17.715 44.0451 16.0925C43.4551 15.7475 42.7438 15.6112 41.9926 15.4325C41.5888 15.4087 41.1863 15.3837 40.7826 15.3587C40.5363 15.255 40.2813 14.955 40.0488 14.8087C39.1301 14.2275 36.7726 12.965 36.0926 14.625C35.6626 15.6725 36.7351 16.695 37.1188 17.2262C37.3876 17.5987 37.7326 18.0162 37.9251 18.4362C38.0513 18.7112 38.0738 18.9875 38.1813 19.2787C38.4476 19.9962 38.8688 20.8137 39.2138 21.4775C39.3876 21.8137 39.5801 22.1662 39.8001 22.4662C39.9351 22.65 40.1663 22.7312 40.2038 23.0162C39.9776 23.3325 39.9651 23.8237 39.8376 24.2262C39.2651 26.0325 39.4813 28.2762 40.3138 29.6112C40.5688 30.0212 41.1713 30.9012 41.9988 30.5637C42.7226 30.2687 42.5613 29.355 42.7676 28.5487C42.8138 28.3662 42.7851 28.2325 42.8776 28.11C42.8776 28.1225 42.8776 28.1337 42.8776 28.1475C43.0976 28.5862 43.3163 29.0275 43.5376 29.4662C44.0263 30.2525 44.8926 31.0737 45.6251 31.6287C46.0051 31.9162 46.3051 32.4137 46.7976 32.5812C46.7976 32.5687 46.7976 32.5575 46.7976 32.5437C46.7851 32.5437 46.7738 32.5437 46.7601 32.5437C46.6651 32.395 46.5151 32.3337 46.3938 32.2137C46.1076 31.9325 45.7876 31.5837 45.5513 31.2612C44.8838 30.355 44.2938 29.3625 43.7563 28.33C43.5001 27.8362 43.2763 27.2937 43.0601 26.7912C42.9763 26.5975 42.9776 26.305 42.8038 26.205C42.5663 26.5725 42.2188 26.87 42.0351 27.3037C41.7426 27.9975 41.7038 28.845 41.5963 29.7212C41.5313 29.7437 41.5601 29.7287 41.5226 29.7575C41.0126 29.6337 40.8326 29.11 40.6426 28.6587C40.1626 27.5187 40.0738 25.6837 40.4963 24.3725C40.6051 24.0325 41.0988 22.9637 40.9001 22.65C40.8051 22.3362 40.4901 22.155 40.3151 21.9162C40.0963 21.6212 39.8801 21.2312 39.7288 20.89C39.3363 20.0012 38.9638 18.9675 38.5501 18.0687C38.3526 17.6387 38.0188 17.205 37.7438 16.8237C37.4401 16.4012 37.0988 16.09 36.8638 15.5787C36.7801 15.3975 36.6663 15.1062 36.7901 14.9187C36.8301 14.7925 36.8851 14.74 37.0101 14.6987C37.2226 14.5337 37.8138 14.7525 38.0363 14.845C38.6238 15.0887 39.1138 15.3212 39.6113 15.6512C39.8501 15.81 40.0913 16.1162 40.3801 16.2012C40.4901 16.2012 40.6001 16.2012 40.7101 16.2012C41.2263 16.32 41.8038 16.2387 42.2851 16.385C43.1376 16.6437 43.9001 17.0462 44.5926 17.4837C46.7051 18.8175 48.4313 20.715 49.6126 22.98C49.8026 23.345 49.8851 23.6925 50.0513 24.0787C50.3888 24.8587 50.8151 25.6612 51.1501 26.4237C51.4851 27.185 51.8126 27.9525 52.2863 28.5862C52.5363 28.9187 53.4988 29.0975 53.9351 29.2825C54.2413 29.4125 54.7438 29.5462 55.0338 29.7212C55.5888 30.0562 56.1263 30.455 56.6451 30.82C56.9101 31.0037 57.7088 31.405 57.7488 31.7362Z" fill="#00796B"/>
<path d="M41.3725 17.7788C41.1038 17.7738 40.9138 17.8075 40.7125 17.8525C40.7125 17.865 40.7125 17.8763 40.7125 17.89C40.725 17.89 40.7363 17.89 40.75 17.89C40.8788 18.1525 41.1038 18.3238 41.2625 18.55C41.385 18.8063 41.5063 19.0625 41.6288 19.3188C41.6413 19.3063 41.6525 19.295 41.665 19.2825C41.8913 19.1225 41.9963 18.8675 41.995 18.4763C41.9038 18.38 41.89 18.26 41.8113 18.1463C41.7063 17.9925 41.5038 17.9063 41.3725 17.7788Z" fill="#00796B"/>
</g>
<defs>
<clipPath id="clip0_15_35">
<rect width="60" height="60" fill="white"/>
</clipPath>
</defs>
</svg>
