<svg width="60" height="60" viewBox="0 0 60 60" fill="none" xmlns="http://www.w3.org/2000/svg">
<path d="M21.505 23.9025L15.3712 27.2962C15.1412 27.4225 15 27.6575 15 27.9112V34.7025C15 34.9562 15.1412 35.19 15.3712 35.3175L21.5063 38.7137C21.735 38.84 22.0188 38.84 22.2475 38.7137L28.3813 35.3175C28.6088 35.19 28.75 34.9562 28.75 34.7025V27.9112C28.75 27.6575 28.6088 27.4237 28.3787 27.2962L22.2463 23.9025C22.1313 23.8387 22.0025 23.8075 21.875 23.8075C21.7463 23.8075 21.6187 23.8387 21.5037 23.9025M53.0638 30.0162L52.0413 30.5812C52.0025 30.6025 51.98 30.6412 51.98 30.6837V31.8162C51.98 31.8587 52.0038 31.8975 52.0413 31.9187L53.0638 32.485C53.1025 32.5062 53.1488 32.5062 53.1875 32.485L54.21 31.9187C54.2475 31.8975 54.2713 31.8587 54.2713 31.8162V30.6837C54.2713 30.6412 54.2475 30.6025 54.2088 30.5812L53.1863 30.0162C53.1675 30.005 53.1463 30 53.125 30C53.1038 30 53.0825 30.005 53.0638 30.0162Z" fill="#388E3C"/>
<path d="M44.6887 16.705L41.7025 15.0388C41.6087 14.9863 41.4937 14.9875 41.4012 15.0425C41.3087 15.0975 41.2512 15.1963 41.2512 15.3038L41.25 25.3688L38.4963 23.845C38.3813 23.7813 38.2525 23.75 38.125 23.75C37.9975 23.75 37.8687 23.7813 37.7537 23.845H37.755L31.6213 27.2388C31.3913 27.365 31.25 27.6 31.25 27.8525V34.6438C31.25 34.8975 31.3913 35.1313 31.6213 35.2588L37.7562 38.655C37.985 38.7813 38.2687 38.7813 38.4975 38.655L44.6313 35.2588C44.8588 35.1325 45 34.8975 45 34.6438V17.235C45 17.015 44.88 16.8125 44.6887 16.705ZM41.0825 33.0725L38.295 34.6163C38.1912 34.6738 38.0625 34.6738 37.9588 34.6163L35.17 33.0725C35.0637 33.015 35 32.9075 35 32.7925V29.705C35 29.59 35.0638 29.4838 35.1687 29.425L37.9575 27.8825C38.01 27.8538 38.0662 27.84 38.125 27.84C38.1837 27.84 38.2412 27.855 38.2937 27.8825L41.0813 29.425C41.1863 29.4838 41.25 29.5913 41.25 29.7063V32.7938C41.25 32.9075 41.1863 33.015 41.0825 33.0725Z" fill="#37474F"/>
<path d="M21.505 23.9025L15 34.7025C15 34.9562 15.1412 35.19 15.3712 35.3175L21.5062 38.7137C21.735 38.84 22.0187 38.84 22.2475 38.7137L28.75 27.9112C28.75 27.6575 28.6087 27.4237 28.3787 27.2962L22.2463 23.9025C22.1313 23.8387 22.0025 23.8075 21.875 23.8075C21.7462 23.8075 21.6187 23.8387 21.5037 23.9025" fill="#2E7D32"/>
<path d="M21.505 23.9025L15.3712 27.2962C15.1412 27.4225 15 27.6575 15 27.9112L21.505 38.7137C21.7337 38.84 22.0175 38.84 22.2463 38.7137L28.38 35.3175C28.6087 35.19 28.75 34.9562 28.75 34.7025L22.2463 23.9025C22.1313 23.8387 22.0025 23.8075 21.875 23.8075C21.7462 23.8075 21.6187 23.8387 21.5037 23.9025" fill="#4CAF50"/>
<path d="M59.6287 27.2388L53.4963 23.845C53.3813 23.7813 53.2525 23.75 53.125 23.75C52.9975 23.75 52.8687 23.7813 52.7537 23.845L46.6213 27.2388C46.3925 27.365 46.25 27.605 46.25 27.8675V34.6313C46.25 34.8925 46.3925 35.1338 46.6213 35.26L52.7563 38.6562C52.9863 38.7838 53.2675 38.7838 53.4975 38.6562L56.3263 37.09C56.585 36.9463 56.5837 36.575 56.3237 36.4325L50.1687 33.0738C50.065 33.015 50 32.9063 50 32.7888V29.7062C50 29.5912 50.0625 29.485 50.1625 29.43L52.9563 27.885H52.955C53.0075 27.8563 53.065 27.8425 53.1237 27.8425C53.1825 27.8425 53.24 27.8575 53.2925 27.885L56.0863 29.4313C56.1862 29.4863 56.2487 29.5925 56.2487 29.7075V32.2225C56.2487 32.33 56.3062 32.43 56.4 32.4838C56.4937 32.5363 56.6087 32.5363 56.7025 32.4825L59.7 30.7413C59.885 30.6338 60 30.435 60 30.22V27.87C60 27.6062 59.8575 27.365 59.6287 27.2388ZM13.3787 27.2388L7.24625 23.845C7.13125 23.7813 7.0025 23.75 6.875 23.75C6.7475 23.75 6.61875 23.7813 6.50375 23.845L0.37125 27.2388C0.1425 27.365 0 27.605 0 27.8675V37.1988C0 37.3063 0.0575 37.4063 0.15125 37.46C0.245 37.5125 0.36 37.5125 0.45375 37.4587L3.45125 35.7175C3.63625 35.61 3.75 35.4113 3.75 35.1963V29.705C3.75 29.59 3.8125 29.4837 3.9125 29.4287L6.70625 27.8837C6.75875 27.855 6.81625 27.8413 6.875 27.8413C6.93375 27.8413 6.99125 27.8562 7.04375 27.8837L9.8375 29.43C9.9375 29.485 10 29.5912 10 29.7062V35.1975C10 35.4125 10.1137 35.6113 10.3 35.7188L13.2975 37.46C13.3912 37.5138 13.5063 37.5138 13.6 37.4613C13.6925 37.4063 13.75 37.3063 13.75 37.1988V27.8688C13.75 27.6063 13.6075 27.365 13.3787 27.2388Z" fill="#37474F"/>
</svg>
