<svg width="60" height="60" viewBox="0 0 60 60" fill="none" xmlns="http://www.w3.org/2000/svg">
<path d="M30 12.2461C46.0687 12.2461 58.425 20.707 58.425 30C58.425 39.293 46.0594 47.7539 30 47.7539C13.9313 47.7539 1.575 39.293 1.575 30C1.575 20.707 13.9406 12.2461 30 12.2461ZM30 10.2773C13.4344 10.2773 0 19.1016 0 30C0 40.8984 13.4344 49.7227 30 49.7227C46.5656 49.7227 60 40.8984 60 30C60 19.1016 46.5656 10.2773 30 10.2773ZM20.4562 28.418C19.7156 33.1641 17.1 32.6719 13.8844 32.6719L15.1688 24.3984C18.7313 24.3984 21.15 23.918 20.4562 28.418ZM9.13125 41.0508H12.5719L13.3875 35.8008C17.2406 35.8008 19.6313 36.1523 21.8438 33.5625C24.2906 30.75 24.9281 25.7461 23.1844 23.2383C22.275 21.9258 20.8125 21.2813 18.825 21.2813H12.1969L9.13125 41.0508ZM26.5406 16.0195H29.9625L29.1469 21.2695C32.1 21.2695 34.8375 21 36.1594 22.5234C37.5469 24.1172 36.8812 26.1562 35.3812 35.7773H31.9125C33.3563 26.4727 33.6281 25.6992 33.1031 24.9961C32.5969 24.3164 31.4438 24.457 28.6594 24.457L26.8969 35.7773H23.475L26.5406 16.0195ZM47.3438 28.418C46.5938 33.2344 43.9031 32.6719 40.7719 32.6719L42.0563 24.3984C45.6375 24.3984 48.0375 23.918 47.3438 28.418ZM36.0188 41.0508H39.4688L40.2844 35.8008C44.3344 35.8008 46.575 36.0938 48.7406 33.5625C51.1875 30.75 51.825 25.7461 50.0813 23.2383C49.1719 21.9258 47.7094 21.2813 45.7219 21.2813H39.0938L36.0188 41.0508Z" fill="#7A86B8"/>
</svg>
