<svg width="60" height="60" viewBox="0 0 60 60" fill="none" xmlns="http://www.w3.org/2000/svg">
<path d="M49.8337 32.445C47.9113 32.455 46.2463 32.9163 44.8512 33.605C44.3412 32.5863 43.8237 31.69 43.7375 31.0238C43.6362 30.2463 43.5187 29.7813 43.6412 28.855C43.7637 27.9288 44.3 26.6163 44.2925 26.5175C44.285 26.4188 44.1725 25.9475 43.0637 25.9388C41.955 25.9313 41.0062 26.1525 40.895 26.445C40.7837 26.7375 40.57 27.3963 40.4375 28.0838C40.2437 29.0888 38.2238 32.675 37.0775 34.55C36.7025 33.8175 36.3838 33.1725 36.3175 32.6625C36.2163 31.885 36.0987 31.42 36.2212 30.4938C36.3438 29.5675 36.88 28.255 36.8725 28.1563C36.865 28.0575 36.7525 27.5863 35.6437 27.5775C34.535 27.57 33.5863 27.7913 33.475 28.0838C33.3638 28.3763 33.2437 29.06 33.0175 29.7225C32.79 30.3838 30.1062 36.365 29.4025 37.9163C29.0437 38.7063 28.7325 39.3413 28.5125 39.7738L28.5112 39.7713C28.5112 39.7713 28.4975 39.8 28.475 39.8488C28.2862 40.2175 28.175 40.4213 28.175 40.4213C28.175 40.4213 28.1762 40.4238 28.1787 40.4288C28.0287 40.7 27.8687 40.9513 27.79 40.9513C27.735 40.9513 27.6237 40.23 27.8137 39.24C28.2137 37.165 29.1725 33.93 29.1637 33.8175C29.1587 33.76 29.3425 33.1963 28.5375 32.9013C27.755 32.615 27.4762 33.0925 27.405 33.0938C27.3362 33.095 27.285 33.2625 27.285 33.2625C27.285 33.2625 28.1562 29.6238 25.6225 29.6238C24.0375 29.6238 21.8425 31.3575 20.7612 32.9288C20.0787 33.3013 18.6175 34.0988 17.0687 34.95C16.4737 35.2775 15.8662 35.6113 15.29 35.9288C15.2512 35.885 15.2112 35.8425 15.1712 35.7988C12.0975 32.52 6.4175 30.2013 6.6575 25.7925C6.745 24.19 7.3025 19.97 17.5737 14.8525C25.9875 10.66 32.7238 11.8138 33.8875 14.37C35.55 18.0238 30.2875 24.8125 21.55 25.7925C18.2212 26.1663 16.4675 24.875 16.0312 24.395C15.5725 23.8888 15.5037 23.8663 15.3325 23.9613C15.0537 24.1163 15.23 24.5625 15.3325 24.8288C15.5937 25.5075 16.6637 26.7113 18.4887 27.3113C20.095 27.8388 24.0037 28.1275 28.73 26.2988C34.025 24.2513 38.1587 18.5538 36.9437 13.7925C35.7088 8.95001 27.6787 7.35751 20.0787 10.0575C15.55 11.665 10.6537 14.1875 7.1325 17.48C2.94625 21.395 2.27875 24.8038 2.55375 26.2275C3.53125 31.2875 10.505 34.5825 13.2975 37.0238C13.16 37.1 13.03 37.1713 12.9125 37.2363C11.5125 37.9288 6.19625 40.7113 4.86625 43.65C3.3575 46.9838 5.10625 49.3763 6.26375 49.6988C9.85 50.6963 13.53 48.9013 15.5087 45.9513C17.4862 43.0025 17.245 39.1613 16.3375 37.4088C16.3262 37.3875 16.3137 37.3663 16.3025 37.3438C16.6637 37.13 17.0325 36.9125 17.3975 36.6975C18.11 36.2788 18.81 35.8888 19.4162 35.5588C19.0762 36.4888 18.8275 37.605 18.6987 39.2163C18.5462 41.1088 19.3225 43.555 20.3375 44.5175C20.785 44.9413 21.3225 44.9513 21.6625 44.9513C22.8437 44.9513 23.3825 43.9688 23.9762 42.8063C24.7037 41.3813 25.35 39.7213 25.35 39.7213C25.35 39.7213 24.54 44.2038 26.7475 44.2038C27.5525 44.2038 28.3612 43.16 28.7225 42.6288C28.7237 42.635 28.7237 42.6375 28.7237 42.6375C28.7237 42.6375 28.745 42.6025 28.7862 42.5338C28.87 42.4063 28.9175 42.325 28.9175 42.325C28.9175 42.325 28.9187 42.3163 28.9212 42.3013C29.245 41.74 29.9625 40.46 31.0375 38.3488C32.4275 35.6213 33.76 32.2038 33.76 32.2038C33.76 32.2038 33.8837 33.0388 34.29 34.4213C34.5287 35.2338 35.0363 36.1325 35.4375 36.995C35.115 37.4425 34.9175 37.6988 34.9175 37.6988C34.9175 37.6988 34.9188 37.7038 34.9225 37.7125C34.665 38.055 34.3763 38.4238 34.0738 38.7838C32.9762 40.09 31.67 41.5825 31.495 42.0125C31.2887 42.52 31.3375 42.8925 31.7362 43.1938C32.0275 43.4125 32.545 43.4475 33.0863 43.4113C34.0725 43.345 34.765 43.1 35.1075 42.9513C35.6413 42.7625 36.2625 42.4663 36.845 42.0375C37.9212 41.2463 38.57 40.115 38.5075 38.615C38.4725 37.7888 38.21 36.97 37.8763 36.1975C37.9738 36.0575 38.0713 35.915 38.17 35.7725C39.8662 33.2925 41.1825 30.5675 41.1825 30.5675C41.1825 30.5675 41.3062 31.4025 41.7125 32.785C41.9175 33.4838 42.3237 34.2475 42.6888 34.995C41.0938 36.2913 40.105 37.7975 39.7612 38.785C39.1263 40.6125 39.6237 41.44 40.5563 41.6288C40.9787 41.7138 41.5762 41.52 42.025 41.33C42.5837 41.145 43.255 40.8363 43.8825 40.375C44.9587 39.5838 45.9937 38.4763 45.9312 36.9775C45.9025 36.295 45.7175 35.6175 45.4663 34.9675C46.8187 34.4038 48.5687 34.0913 50.7987 34.3513C55.5825 34.91 56.52 37.8963 56.3413 39.1463C56.1613 40.3963 55.1588 41.0838 54.8225 41.2913C54.4875 41.4988 54.385 41.5713 54.4125 41.725C54.4537 41.9488 54.6087 41.9413 54.895 41.8925C55.2887 41.8263 57.4062 40.8763 57.4975 38.5688C57.6113 35.6363 54.805 32.4188 49.8337 32.445ZM12.9625 44.875C11.3775 46.6038 9.165 47.2563 8.215 46.7063C7.19 46.1125 7.59625 43.5675 9.54 41.7325C10.725 40.615 12.255 39.585 13.27 38.9513C13.5012 38.8125 13.84 38.6088 14.2525 38.3613C14.3212 38.3225 14.36 38.3013 14.36 38.3013L14.3587 38.2988C14.4387 38.2513 14.52 38.2025 14.6037 38.1513C15.3125 40.7625 14.6262 43.0613 12.9625 44.875ZM24.5062 37.0288C23.955 38.3738 22.8 41.8163 22.0962 41.6313C21.4925 41.4725 21.125 38.8563 21.9762 36.2813C22.4037 34.985 23.3187 33.4363 23.8562 32.835C24.7212 31.8675 25.6737 31.5513 25.905 31.9438C26.1987 32.4438 24.8525 36.185 24.5062 37.0288ZM34.0425 41.5788C33.8087 41.7013 33.5937 41.7775 33.495 41.7188C33.4212 41.675 33.5912 41.5138 33.5912 41.5138C33.5912 41.5138 34.7837 40.23 35.2537 39.6463C35.5275 39.3063 35.8438 38.9025 36.1888 38.4525C36.1912 38.4975 36.1925 38.5425 36.1925 38.5863C36.19 40.1238 34.705 41.1613 34.0425 41.5788ZM41.3888 39.9038C41.2137 39.78 41.2437 39.3788 41.8175 38.1275C42.0425 37.6363 42.5575 36.81 43.45 36.02C43.5537 36.345 43.6162 36.6563 43.615 36.9463C43.6037 38.8813 42.2238 39.6038 41.3888 39.9038Z" fill="#F06292"/>
</svg>
